<?xml version="1.0" standalone="no"?>
<!DOCTYPE svg PUBLIC "-//W3C//DTD SVG 20010904//EN"
 "http://www.w3.org/TR/2001/REC-SVG-20010904/DTD/svg10.dtd">
<svg version="1.0" xmlns="http://www.w3.org/2000/svg"
 width="512.000000pt" height="512.000000pt" viewBox="0 0 512.000000 512.000000"
 preserveAspectRatio="xMidYMid meet">

<g transform="translate(0.000000,512.000000) scale(0.100000,-0.100000)"
fill="#ffffff" stroke="none">
<path d="M2055 4465 c-87 -20 -140 -40 -204 -80 -122 -76 -183 -149 -273 -329
-67 -133 -111 -185 -175 -204 -25 -7 -108 -12 -219 -12 -214 0 -285 -13 -404
-71 -162 -79 -293 -244 -334 -419 -23 -98 -23 -2122 0 -2220 41 -175 172 -340
334 -419 154 -75 45 -71 1780 -71 1327 0 1565 2 1625 15 233 49 435 245 489
475 23 98 23 2122 0 2220 -41 175 -172 340 -334 419 -120 58 -190 71 -410 71
-174 0 -188 2 -236 24 -62 29 -86 59 -157 201 -69 138 -131 221 -210 280 -75
57 -111 76 -202 106 -69 23 -77 24 -540 26 -368 1 -483 -1 -530 -12z m785
-1089 c360 -100 641 -378 744 -737 122 -427 -31 -878 -389 -1148 -94 -71 -249
-145 -370 -178 -89 -23 -118 -26 -265 -26 -146 0 -176 3 -262 26 -666 177
-995 905 -687 1518 128 255 383 465 655 540 125 34 161 38 324 34 129 -3 171
-8 250 -29z"/>
<path d="M2465 2979 c-362 -55 -605 -405 -530 -764 49 -233 245 -435 475 -489
36 -9 103 -16 150 -16 179 0 318 58 446 185 161 159 223 363 178 583 -66 327
-389 552 -719 501z"/>
</g>
</svg>
