<?xml version="1.0" standalone="no"?>
<!DOCTYPE svg PUBLIC "-//W3C//DTD SVG 20010904//EN"
 "http://www.w3.org/TR/2001/REC-SVG-20010904/DTD/svg10.dtd">
<svg version="1.0" xmlns="http://www.w3.org/2000/svg"
 width="512.000000pt" height="512.000000pt" viewBox="0 0 512.000000 512.000000"
 preserveAspectRatio="xMidYMid meet">

<g transform="translate(0.000000,512.000000) scale(0.100000,-0.100000)"
fill="#fb8351" stroke="none">
<path d="M2380 5114 c-19 -2 -78 -9 -130 -14 -721 -79 -1404 -500 -1820 -1123
-316 -473 -469 -1068 -420 -1627 78 -866 555 -1603 1319 -2035 256 -145 594
-254 921 -297 123 -16 497 -16 620 0 669 89 1246 408 1675 927 408 493 622
1184 565 1825 -78 866 -555 1603 -1319 2035 -253 143 -596 254 -911 295 -88
12 -438 21 -500 14z m-736 -1346 c35 -10 106 -76 479 -447 l437 -435 438 435
c403 402 441 437 485 449 174 47 334 -113 287 -287 -12 -44 -47 -82 -449 -485
l-435 -438 435 -437 c402 -404 437 -442 449 -486 47 -174 -113 -334 -287 -287
-44 12 -82 47 -485 449 l-438 435 -437 -435 c-404 -402 -442 -437 -486 -449
-174 -47 -334 113 -287 287 12 44 47 82 449 486 l435 437 -435 438 c-402 403
-437 441 -449 485 -48 179 113 337 294 285z"/>
</g>
</svg>
