<?xml version="1.0" standalone="no"?>
<!DOCTYPE svg PUBLIC "-//W3C//DTD SVG 20010904//EN"
 "http://www.w3.org/TR/2001/REC-SVG-20010904/DTD/svg10.dtd">
<svg version="1.0" xmlns="http://www.w3.org/2000/svg"
 width="512.000000pt" height="512.000000pt" viewBox="0 0 512.000000 512.000000"
 preserveAspectRatio="xMidYMid meet">

<g transform="translate(0.000000,512.000000) scale(0.100000,-0.100000)"
fill="#333237" stroke="none">
<path d="M400 5099 c-92 -24 -166 -67 -239 -140 -74 -74 -116 -147 -141 -243
-20 -78 -20 -106 -20 -2156 0 -2050 0 -2078 20 -2156 25 -96 67 -169 141 -243
74 -74 147 -116 243 -141 78 -20 106 -20 2156 -20 2050 0 2078 0 2156 20 96
25 169 67 243 141 74 74 116 147 141 243 20 78 20 106 20 2156 0 2050 0 2078
-20 2156 -25 96 -67 169 -141 243 -74 74 -147 116 -243 141 -78 20 -105 20
-2160 19 -2032 0 -2083 -1 -2156 -20z m4295 -263 c61 -29 117 -86 144 -146 20
-44 21 -60 21 -1320 l0 -1275 -517 516 c-285 284 -529 524 -543 533 -40 26
-101 21 -146 -13 -21 -16 -370 -360 -774 -765 l-735 -736 -430 430 -431 430
-50 0 c-29 0 -60 -7 -74 -16 -14 -9 -222 -213 -462 -453 l-438 -436 0 1530 0
1530 24 50 c29 61 86 117 146 144 45 20 55 21 2130 21 l2085 0 50 -24z m165
-3736 l0 -625 -24 -50 c-29 -61 -86 -117 -146 -144 -45 -20 -55 -21 -2130 -21
l-2085 0 -50 24 c-61 29 -117 86 -144 146 -19 43 -21 65 -21 415 l0 370 485
485 485 485 427 -427 c286 -285 437 -429 456 -433 79 -20 46 -50 862 766 l760
759 563 -563 562 -562 0 -625z"/>
<path d="M1442 4355 c-230 -50 -426 -243 -487 -480 -19 -76 -19 -233 0 -310
27 -107 92 -221 170 -299 123 -124 257 -184 425 -193 195 -10 357 53 495 191
203 204 249 486 122 746 -53 110 -167 227 -274 283 -138 72 -301 94 -451 62z
m313 -280 c247 -120 301 -444 106 -634 -270 -263 -721 -30 -661 341 41 255
325 405 555 293z"/>
</g>
</svg>
