<?xml version="1.0" standalone="no"?>
<!DOCTYPE svg PUBLIC "-//W3C//DTD SVG 20010904//EN"
 "http://www.w3.org/TR/2001/REC-SVG-20010904/DTD/svg10.dtd">
<svg version="1.0" xmlns="http://www.w3.org/2000/svg"
 width="512.000000pt" height="512.000000pt" viewBox="0 0 512.000000 512.000000"
 preserveAspectRatio="xMidYMid meet">

  <defs>
    <linearGradient id="grad1" x1="0%" y1="0%" x2="100%" y2="0%">
        <stop offset="0%" style="stop-color:#f5af19;stop-opacity:1" />
        <stop offset="100%" style="stop-color:#f12711;stop-opacity:1" />
    </linearGradient>
</defs>

<g transform="translate(0.000000,512.000000) scale(0.100000,-0.100000)"
fill="url(#grad1)" stroke="none">
<path d="M2780 4718 c-61 -31 -90 -77 -90 -142 0 -57 23 -105 64 -131 13 -9
80 -27 148 -40 180 -36 333 -89 497 -172 197 -99 308 -180 476 -348 168 -167
249 -279 348 -475 192 -380 248 -785 167 -1203 -46 -236 -168 -522 -307 -716
-123 -172 -317 -359 -498 -481 -86 -58 -110 -97 -103 -172 9 -86 72 -142 159
-142 40 0 59 8 121 49 448 296 780 757 913 1271 196 753 -21 1550 -570 2099
-315 315 -705 520 -1148 604 -132 26 -123 26 -177 -1z"/>
<path d="M1750 4601 c-509 -206 -916 -586 -1158 -1080 -77 -159 -86 -204 -50
-270 28 -53 76 -81 136 -81 88 0 112 26 211 223 104 209 184 321 351 488 199
200 416 343 660 434 86 33 123 65 140 122 16 52 6 104 -27 143 -60 72 -125 77
-263 21z"/>
<path d="M456 2708 c-70 -40 -81 -73 -78 -218 11 -536 244 -1071 638 -1464
502 -503 1217 -731 1914 -610 109 19 137 31 174 74 32 38 40 69 33 121 -7 54
-47 104 -100 124 -40 15 -50 15 -133 0 -238 -42 -494 -39 -724 9 -159 33 -282
76 -437 151 -213 104 -367 218 -538 397 -133 139 -220 263 -308 439 -122 241
-179 450 -199 733 -10 132 -15 163 -32 189 -51 74 -138 97 -210 55z"/>
</g>
</svg>
