<svg width="279" height="210" viewBox="0 0 279 210" fill="none" xmlns="http://www.w3.org/2000/svg">
<path d="M71.5751 179.035C32.3173 158.763 16.9261 110.505 37.1978 71.247C57.4696 31.9892 105.728 16.598 144.986 36.8697" stroke="url(#paint0_linear_29_31)" stroke-width="10" stroke-dasharray="2 2"/>
<path d="M144.986 35.8697C180.926 54.0241 191.341 86.4614 190.577 110.449" stroke="#FC4A1A" stroke-width="10"/>
<path d="M136.405 141.94C137.215 140.62 138.265 139.585 139.555 138.835C140.875 138.085 142.375 137.71 144.055 137.71V144.325H142.39C140.41 144.325 138.91 144.79 137.89 145.72C136.9 146.65 136.405 148.27 136.405 150.58V163H130.105V138.07H136.405V141.94ZM220.627 163L212.167 152.38V163H205.867V129.7H212.167V148.645L220.537 138.07H228.727L217.747 150.58L228.817 163H220.627ZM255.321 149.995C255.321 150.895 255.261 151.705 255.141 152.425H236.916C237.066 154.225 237.696 155.635 238.806 156.655C239.916 157.675 241.281 158.185 242.901 158.185C245.241 158.185 246.906 157.18 247.896 155.17H254.691C253.971 157.57 252.591 159.55 250.551 161.11C248.511 162.64 246.006 163.405 243.036 163.405C240.636 163.405 238.476 162.88 236.556 161.83C234.666 160.75 233.181 159.235 232.101 157.285C231.051 155.335 230.526 153.085 230.526 150.535C230.526 147.955 231.051 145.69 232.101 143.74C233.151 141.79 234.621 140.29 236.511 139.24C238.401 138.19 240.576 137.665 243.036 137.665C245.406 137.665 247.521 138.175 249.381 139.195C251.271 140.215 252.726 141.67 253.746 143.56C254.796 145.42 255.321 147.565 255.321 149.995ZM248.796 148.195C248.766 146.575 248.181 145.285 247.041 144.325C245.901 143.335 244.506 142.84 242.856 142.84C241.296 142.84 239.976 143.32 238.896 144.28C237.846 145.21 237.201 146.515 236.961 148.195H248.796ZM266.219 141.94C267.029 140.62 268.079 139.585 269.369 138.835C270.689 138.085 272.189 137.71 273.869 137.71V144.325H272.204C270.224 144.325 268.724 144.79 267.704 145.72C266.714 146.65 266.219 148.27 266.219 150.58V163H259.919V138.07H266.219V141.94Z" fill="white"/>
<path d="M146.678 150.445C146.678 147.925 147.173 145.69 148.163 143.74C149.183 141.79 150.548 140.29 152.258 139.24C153.998 138.19 155.933 137.665 158.063 137.665C159.923 137.665 161.543 138.04 162.923 138.79C164.333 139.54 165.458 140.485 166.298 141.625V138.07H172.643V163H166.298V159.355C165.488 160.525 164.363 161.5 162.923 162.28C161.513 163.03 159.878 163.405 158.018 163.405C155.918 163.405 153.998 162.865 152.258 161.785C150.548 160.705 149.183 159.19 148.163 157.24C147.173 155.26 146.678 152.995 146.678 150.445ZM166.298 150.535C166.298 149.005 165.998 147.7 165.398 146.62C164.798 145.51 163.988 144.67 162.968 144.1C161.948 143.5 160.853 143.2 159.683 143.2C158.513 143.2 157.433 143.485 156.443 144.055C155.453 144.625 154.643 145.465 154.013 146.575C153.413 147.655 153.113 148.945 153.113 150.445C153.113 151.945 153.413 153.265 154.013 154.405C154.643 155.515 155.453 156.37 156.443 156.97C157.463 157.57 158.543 157.87 159.683 157.87C160.853 157.87 161.948 157.585 162.968 157.015C163.988 156.415 164.798 155.575 165.398 154.495C165.998 153.385 166.298 152.065 166.298 150.535ZM177.176 150.535C177.176 147.955 177.701 145.705 178.751 143.785C179.801 141.835 181.256 140.335 183.116 139.285C184.976 138.205 187.106 137.665 189.506 137.665C192.596 137.665 195.146 138.445 197.156 140.005C199.196 141.535 200.561 143.695 201.251 146.485H194.456C194.096 145.405 193.481 144.565 192.611 143.965C191.771 143.335 190.721 143.02 189.461 143.02C187.661 143.02 186.236 143.68 185.186 145C184.136 146.29 183.611 148.135 183.611 150.535C183.611 152.905 184.136 154.75 185.186 156.07C186.236 157.36 187.661 158.005 189.461 158.005C192.011 158.005 193.676 156.865 194.456 154.585H201.251C200.561 157.285 199.196 159.43 197.156 161.02C195.116 162.61 192.566 163.405 189.506 163.405C187.106 163.405 184.976 162.88 183.116 161.83C181.256 160.75 179.801 159.25 178.751 157.33C177.701 155.38 177.176 153.115 177.176 150.535Z" fill="#FC4A1A"/>
<path d="M111.885 93C111.885 93 113.159 208.704 107.216 209.99C101.273 211.275 100 93 100 93H111.885Z" fill="white"/>
<path d="M91 103.115C91 103.115 163.191 101.841 163.994 107.784C164.796 113.727 91 115 91 115V103.115Z" fill="white"/>
<circle cx="105.5" cy="108.5" r="6.5" fill="#FB8351"/>
<circle cx="275.5" cy="161.5" r="3.5" fill="white"/>
<defs>
<linearGradient id="paint0_linear_29_31" x1="109.444" y1="18.5171" x2="36.0338" y2="160.682" gradientUnits="userSpaceOnUse">
<stop stop-color="#FC4A1A"/>
<stop offset="1" stop-color="#F7B733"/>
</linearGradient>
</defs>
</svg>
