<svg width="279" height="211" viewBox="0 0 279 211" fill="none" xmlns="http://www.w3.org/2000/svg">
<path d="M71.5751 179.035C32.3173 158.763 16.9261 110.505 37.1978 71.247C57.4696 31.9892 105.728 16.598 144.986 36.8697" stroke="#FB8351" stroke-width="10"/>
<path d="M144.986 36.8697C180.926 55.0241 191.341 87.4614 190.577 111.449" stroke="#FB8351" stroke-width="10"/>
<path d="M134.56 143.345C135.28 141.935 136.3 140.84 137.62 140.06C138.97 139.28 140.605 138.89 142.525 138.89V143.12H141.445C136.855 143.12 134.56 145.61 134.56 150.59V164H130.465V139.34H134.56V143.345ZM218.766 164L209.091 153.11V164H204.996V130.7H209.091V150.275L218.586 139.34H224.301L212.691 151.625L224.346 164H218.766ZM250.655 150.725C250.655 151.505 250.61 152.33 250.52 153.2H230.81C230.96 155.63 231.785 157.535 233.285 158.915C234.815 160.265 236.66 160.94 238.82 160.94C240.59 160.94 242.06 160.535 243.23 159.725C244.43 158.885 245.27 157.775 245.75 156.395H250.16C249.5 158.765 248.18 160.7 246.2 162.2C244.22 163.67 241.76 164.405 238.82 164.405C236.48 164.405 234.38 163.88 232.52 162.83C230.69 161.78 229.25 160.295 228.2 158.375C227.15 156.425 226.625 154.175 226.625 151.625C226.625 149.075 227.135 146.84 228.155 144.92C229.175 143 230.6 141.53 232.43 140.51C234.29 139.46 236.42 138.935 238.82 138.935C241.16 138.935 243.23 139.445 245.03 140.465C246.83 141.485 248.21 142.895 249.17 144.695C250.16 146.465 250.655 148.475 250.655 150.725ZM246.425 149.87C246.425 148.31 246.08 146.975 245.39 145.865C244.7 144.725 243.755 143.87 242.555 143.3C241.385 142.7 240.08 142.4 238.64 142.4C236.57 142.4 234.8 143.06 233.33 144.38C231.89 145.7 231.065 147.53 230.855 149.87H246.425ZM260.156 143.345C260.876 141.935 261.896 140.84 263.216 140.06C264.566 139.28 266.201 138.89 268.121 138.89V143.12H267.041C262.451 143.12 260.156 145.61 260.156 150.59V164H256.061V139.34H260.156V143.345Z" fill="white"/>
<path d="M145.722 151.58C145.722 149.06 146.232 146.855 147.252 144.965C148.272 143.045 149.667 141.56 151.437 140.51C153.237 139.46 155.232 138.935 157.422 138.935C159.582 138.935 161.457 139.4 163.047 140.33C164.637 141.26 165.822 142.43 166.602 143.84V139.34H170.742V164H166.602V159.41C165.792 160.85 164.577 162.05 162.957 163.01C161.367 163.94 159.507 164.405 157.377 164.405C155.187 164.405 153.207 163.865 151.437 162.785C149.667 161.705 148.272 160.19 147.252 158.24C146.232 156.29 145.722 154.07 145.722 151.58ZM166.602 151.625C166.602 149.765 166.227 148.145 165.477 146.765C164.727 145.385 163.707 144.335 162.417 143.615C161.157 142.865 159.762 142.49 158.232 142.49C156.702 142.49 155.307 142.85 154.047 143.57C152.787 144.29 151.782 145.34 151.032 146.72C150.282 148.1 149.907 149.72 149.907 151.58C149.907 153.47 150.282 155.12 151.032 156.53C151.782 157.91 152.787 158.975 154.047 159.725C155.307 160.445 156.702 160.805 158.232 160.805C159.762 160.805 161.157 160.445 162.417 159.725C163.707 158.975 164.727 157.91 165.477 156.53C166.227 155.12 166.602 153.485 166.602 151.625ZM176.132 151.625C176.132 149.075 176.642 146.855 177.662 144.965C178.682 143.045 180.092 141.56 181.892 140.51C183.722 139.46 185.807 138.935 188.147 138.935C191.177 138.935 193.667 139.67 195.617 141.14C197.597 142.61 198.902 144.65 199.532 147.26H195.122C194.702 145.76 193.877 144.575 192.647 143.705C191.447 142.835 189.947 142.4 188.147 142.4C185.807 142.4 183.917 143.21 182.477 144.83C181.037 146.42 180.317 148.685 180.317 151.625C180.317 154.595 181.037 156.89 182.477 158.51C183.917 160.13 185.807 160.94 188.147 160.94C189.947 160.94 191.447 160.52 192.647 159.68C193.847 158.84 194.672 157.64 195.122 156.08H199.532C198.872 158.6 197.552 160.625 195.572 162.155C193.592 163.655 191.117 164.405 188.147 164.405C185.807 164.405 183.722 163.88 181.892 162.83C180.092 161.78 178.682 160.295 177.662 158.375C176.642 156.455 176.132 154.205 176.132 151.625Z" fill="#FB8351"/>
<path d="M111.885 94C111.885 94 113.159 209.704 107.216 210.99C101.273 212.275 100 94 100 94H111.885Z" fill="white"/>
<path d="M91 104.115C91 104.115 163.191 102.841 163.994 108.784C164.796 114.727 91 116 91 116V104.115Z" fill="white"/>
<circle cx="105.5" cy="109.5" r="6.5" fill="#FB8351"/>
<circle cx="275.5" cy="162.5" r="3.5" fill="white"/>
</svg>
