<?xml version="1.0" standalone="no"?>
<!DOCTYPE svg PUBLIC "-//W3C//DTD SVG 20010904//EN"
 "http://www.w3.org/TR/2001/REC-SVG-20010904/DTD/svg10.dtd">
<svg version="1.0" xmlns="http://www.w3.org/2000/svg"
 width="512.000000pt" height="512.000000pt" viewBox="0 0 512.000000 512.000000"
 preserveAspectRatio="xMidYMid meet">

<g transform="translate(0.000000,512.000000) scale(0.100000,-0.100000)"
fill="#ffff" stroke="none">
<path d="M2056 3977 c-109 -61 -106 -221 5 -277 38 -20 60 -20 1258 -18 1214
3 1220 3 1247 24 53 39 69 71 69 134 0 63 -16 95 -69 134 -27 21 -33 21 -1249
23 l-1222 3 -39 -23z"/>
<path d="M575 2706 c-67 -29 -105 -106 -91 -181 9 -47 59 -102 104 -115 26 -8
641 -10 1994 -8 l1957 3 27 21 c53 39 69 71 69 134 0 63 -16 95 -69 134 l-27
21 -1967 2 c-1620 2 -1972 0 -1997 -11z"/>
<path d="M575 1426 c-94 -41 -124 -168 -58 -247 53 -62 -20 -59 1298 -59 1180
0 1207 0 1244 20 113 57 113 223 0 280 -37 20 -64 20 -1246 20 -982 -1 -1214
-3 -1238 -14z"/>
</g>
</svg>
