<?xml version="1.0" standalone="no"?>
<!DOCTYPE svg PUBLIC "-//W3C//DTD SVG 20010904//EN"
 "http://www.w3.org/TR/2001/REC-SVG-20010904/DTD/svg10.dtd">
<svg version="1.0" xmlns="http://www.w3.org/2000/svg"
 width="512.000000pt" height="512.000000pt" viewBox="0 0 512.000000 512.000000"
 preserveAspectRatio="xMidYMid meet">

 <defs>
    <linearGradient id="grad1" x1="0%" y1="0%" x2="100%" y2="0%">
        <stop offset="0%" style="stop-color:#f5af19;stop-opacity:1" />
        <stop offset="100%" style="stop-color:#f12711;stop-opacity:1" />
    </linearGradient>
</defs>

<g transform="translate(0.000000,512.000000) scale(0.100000,-0.100000)"
fill="url(#grad1)" stroke="none">
<path d="M2362 4930 c-486 -47 -920 -221 -1292 -519 -687 -550 -1013 -1446
-840 -2313 92 -459 322 -890 650 -1218 188 -188 386 -328 635 -451 338 -165
663 -241 1035 -242 278 -1 501 34 755 118 609 200 1099 628 1386 1210 118 241
193 488 230 765 39 286 -10 813 -86 931 -28 44 -96 79 -150 79 -84 0 -165 -67
-180 -150 -4 -22 3 -79 19 -150 125 -579 -5 -1167 -362 -1647 -85 -113 -272
-300 -384 -384 -265 -197 -558 -324 -893 -385 -78 -14 -150 -18 -325 -18 -234
0 -309 8 -495 55 -652 166 -1185 655 -1403 1291 -335 971 107 2027 1034 2473
419 201 922 249 1374 129 198 -52 394 -137 555 -240 174 -111 210 -122 291
-85 92 42 130 152 85 245 -18 35 -40 57 -109 104 -292 199 -630 330 -987 383
-154 22 -413 31 -543 19z"/>
<path d="M4338 4016 c-20 -7 -58 -29 -85 -48 -26 -19 -463 -337 -971 -706
-508 -370 -928 -672 -934 -672 -6 0 -198 75 -427 167 -443 178 -469 185 -538
149 -48 -24 -91 -83 -99 -134 -14 -97 -24 -85 494 -605 263 -263 494 -487 514
-498 44 -22 115 -25 161 -5 42 18 2093 2071 2107 2109 27 73 0 175 -57 215
-26 18 -95 42 -118 42 -5 -1 -27 -7 -47 -14z"/>
</g>
</svg>
